name rise44.8762peak52.3436fall86.788.mot
datacolumns 19
datarows 14
range 5.03832900000000 5.05998200000000
endheader
time	ground_force1_vx	ground_force1_vy	ground_force1_vz	ground_force1_px	ground_force1_py	ground_force1_pz	ground_force2_vx	ground_force2_vy	ground_force2_vz	ground_force2_px	ground_force2_py	ground_force2_pz	ground_torque1_x	ground_torque1_y	ground_torque1_z	ground_torque2_x	ground_torque2_y	ground_torque2_z	
5.03832900000000	-64.37586100000000	808.54974300000003	59.66257100000000	0.02557500000000	0.00000000000000	0.14834500000000	-14.87391800000000	79.88045700000001	20.01265500000000	0.28464200000000	0.00000000000000	-0.04913000000000	0.00000000000000	20.21243100000000	0.00000000000000	0.00000000000000	10.51911600000000	0.00000000000000	
5.03997800000000	-64.75871200000000	805.90624300000002	59.41702200000000	0.02514600000000	0.00000000000000	0.14821900000000	-14.67755300000000	84.24598899999999	20.23350700000000	0.28657700000000	0.00000000000000	-0.04967300000000	0.00000000000000	20.21149300000000	0.00000000000000	0.00000000000000	10.73290300000000	0.00000000000000	
5.04165000000000	-65.15055099999999	803.14428299999997	59.15208000000000	0.02472800000000	0.00000000000000	0.14808900000000	-14.36245900000000	88.48816900000000	20.33133300000000	0.28840200000000	0.00000000000000	-0.05020100000000	0.00000000000000	20.21374200000000	0.00000000000000	0.00000000000000	10.88591500000000	0.00000000000000	
5.04333300000000	-65.55131299999999	800.26317500000005	58.86768800000000	0.02431900000000	0.00000000000000	0.14795600000000	-13.95133900000000	92.66015800000000	20.32879100000000	0.29012500000000	0.00000000000000	-0.05071400000000	0.00000000000000	20.21918800000000	0.00000000000000	0.00000000000000	10.98866800000000	0.00000000000000	
5.04498100000000	-65.96087199999999	797.26226299999996	58.56381800000000	0.02391900000000	0.00000000000000	0.14781900000000	-13.46541500000000	96.81389000000000	20.24734100000000	0.29175200000000	0.00000000000000	-0.05121400000000	0.00000000000000	20.22781700000000	0.00000000000000	0.00000000000000	11.05131100000000	0.00000000000000	
5.04664700000000	-66.37904300000000	794.14092000000005	58.24046200000000	0.02352800000000	0.00000000000000	0.14767800000000	-12.92328400000000	100.99657900000000	20.10596000000000	0.29328800000000	0.00000000000000	-0.05170300000000	0.00000000000000	20.23959700000000	0.00000000000000	0.00000000000000	11.08294700000000	0.00000000000000	
5.04832200000000	-66.80557500000000	790.89855299999999	57.89763800000000	0.02314500000000	0.00000000000000	0.14753400000000	-12.34015600000000	105.24818600000000	19.92027100000000	0.29473800000000	0.00000000000000	-0.05218200000000	0.00000000000000	20.25447400000000	0.00000000000000	0.00000000000000	11.09115900000000	0.00000000000000	
5.04998000000000	-67.24015300000001	787.53459499999997	57.53539000000000	0.02276900000000	0.00000000000000	0.14738600000000	-11.72748600000000	109.59984200000000	19.70206800000000	0.29610500000000	0.00000000000000	-0.05265000000000	0.00000000000000	20.27237300000000	0.00000000000000	0.00000000000000	11.08172800000000	0.00000000000000	
5.05164300000000	-67.68239699999999	784.04851099999996	57.15378300000000	0.02239900000000	0.00000000000000	0.14723400000000	-11.09294100000000	114.07320300000001	19.45921700000000	0.29739500000000	0.00000000000000	-0.05311000000000	0.00000000000000	20.29319500000000	0.00000000000000	0.00000000000000	11.05854500000000	0.00000000000000	
5.05333700000000	-68.13185500000000	780.43979600000000	56.75290300000000	0.02203500000000	0.00000000000000	0.14707800000000	-10.44064800000000	118.68059900000000	19.19586400000000	0.29861100000000	0.00000000000000	-0.05356200000000	0.00000000000000	20.31682300000000	0.00000000000000	0.00000000000000	11.02368100000000	0.00000000000000	
5.05497800000000	-68.58801000000000	776.70797200000004	56.33286000000000	0.02167700000000	0.00000000000000	0.14691900000000	-9.77165900000000	123.42582700000000	18.91287600000000	0.29975600000000	0.00000000000000	-0.05400600000000	0.00000000000000	20.34311600000000	0.00000000000000	0.00000000000000	10.97758100000000	0.00000000000000	
5.05664300000000	-69.05026900000000	772.85259599999995	55.89378500000000	0.02132300000000	0.00000000000000	0.14675600000000	-9.08455100000000	128.30540800000000	18.60845600000000	0.30083300000000	0.00000000000000	-0.05444200000000	0.00000000000000	20.37191500000000	0.00000000000000	0.00000000000000	10.91935000000000	0.00000000000000	
5.05833300000000	-69.51797200000000	768.87325199999998	55.43582800000000	0.02097200000000	0.00000000000000	0.14658900000000	-8.37609900000000	133.31013500000000	18.27882400000000	0.30184500000000	0.00000000000000	-0.05487200000000	0.00000000000000	20.40303600000000	0.00000000000000	0.00000000000000	10.84708600000000	0.00000000000000	
5.05998200000000	-69.99038400000001	764.76955699999996	54.95916200000000	0.02062400000000	0.00000000000000	0.14641900000000	-7.64195000000000	138.42672899999999	17.91894000000000	0.30279400000000	0.00000000000000	-0.05529500000000	0.00000000000000	20.43627600000000	0.00000000000000	0.00000000000000	10.75823200000000	0.00000000000000	
